<?xml version="1.0" encoding="UTF-8"?> <svg xmlns="http://www.w3.org/2000/svg" width="65" height="65" viewBox="0 0 65 65" fill="none"><path fill-rule="evenodd" clip-rule="evenodd" d="M18.4739 23.5464C18.2485 24.3743 18.8392 25.4378 20.0452 25.389C28.4796 25.0471 37.8182 20.4301 43.8125 14.3866C45.412 12.7741 45.5929 12.5945 45.9803 12.21C46.1628 12.0289 46.3911 11.8024 46.8349 11.3593L46.8364 14.81C46.8368 15.6384 47.5086 16.3097 48.337 16.3093C49.1655 16.309 49.8367 15.6371 49.8364 14.8087L49.8333 7.73762C49.8329 6.9092 49.161 6.23792 48.3326 6.23828L41.2616 6.24135C40.4331 6.24171 39.7619 6.91357 39.7622 7.742C39.7626 8.57042 40.4345 9.2417 41.2629 9.24134L44.7121 9.23985C44.3795 9.57235 44.1272 9.82432 43.9052 10.046L43.903 10.0482L43.9025 10.0487C43.2909 10.6594 42.9082 11.0416 41.7062 12.2496C36.2188 17.765 27.7366 21.8732 20.1442 22.4772C19.8558 22.5001 19.5102 22.5474 19.2052 22.6908C18.8774 22.8451 18.5915 23.1143 18.4739 23.5464Z" fill="#207DE9"></path><rect x="2.97546" y="17.9561" width="59.1852" height="39.0884" fill="#DBF3F1"></rect><rect x="2.97548" y="59.2363" width="59.1852" height="2.83691" fill="#DBF3F1"></rect><rect x="10.8515" y="29.2812" width="10.8377" height="22.8001" rx="2" fill="#6ADFD7"></rect><rect x="27.8053" y="33.8828" width="10.8377" height="18.1985" rx="2" fill="#6ADFD7"></rect><rect x="43.4468" y="23.835" width="10.8377" height="28.2463" rx="2" fill="#6ADFD7"></rect><path fill-rule="evenodd" clip-rule="evenodd" d="M20.0452 25.389C18.8392 25.4378 18.2485 24.3743 18.4739 23.5464C18.5915 23.1143 18.8774 22.8451 19.2052 22.6908C19.5102 22.5474 19.8558 22.5001 20.1442 22.4772C24.7632 22.1098 29.7116 20.4453 34.1146 17.9561H39.6639C33.962 22.17 26.7204 25.1184 20.0452 25.389Z" fill="#6ADFD7"></path></svg> 