<?xml version="1.0" encoding="UTF-8"?> <svg xmlns="http://www.w3.org/2000/svg" width="49" height="48" viewBox="0 0 49 48" fill="none"><rect x="8.31274" y="10.2033" width="8.1283" height="23.5754" rx="1.5" fill="#207DE9"></rect><rect x="21.0281" y="15.3741" width="8.1283" height="18.4045" rx="1.5" fill="#207DE9"></rect><rect x="32.7593" y="5.34668" width="8.1283" height="28.432" rx="1.5" fill="#207DE9"></rect><path d="M25.1785 24.8794L12.5788 18.5795L3.13257 26.7567V42.6533H46.0678V10.7777L25.1785 24.8794Z" fill="#D4EFE2"></path><path fill-rule="evenodd" clip-rule="evenodd" d="M40.8875 14.2747L32.7592 19.7618V32.2786C32.7592 33.1071 33.4308 33.7786 34.2592 33.7786H39.3875C40.2159 33.7786 40.8875 33.1071 40.8875 32.2786V14.2747ZM21.0281 22.8042L25.1784 24.8794L29.1564 22.194V32.2786C29.1564 33.107 28.4848 33.7786 27.6564 33.7786H22.5281C21.6997 33.7786 21.0281 33.107 21.0281 32.2786V22.8042ZM8.31274 22.2723L12.5787 18.5795L16.441 20.5107V32.2787C16.441 33.1071 15.7695 33.7787 14.941 33.7787H9.81275C8.98432 33.7787 8.31274 33.1071 8.31274 32.2787V22.2723Z" fill="#41D58C"></path></svg> 