<?xml version="1.0" encoding="UTF-8"?> <svg xmlns="http://www.w3.org/2000/svg" width="64" height="65" viewBox="0 0 64 65" fill="none"><g clip-path="url(#clip0_10237_315)"><path d="M37.9142 32.1983L58.8999 47.9375C60.9167 49.4501 59.8469 52.6593 57.326 52.6593H45.7839C44.8151 52.6593 43.9252 53.1933 43.4693 54.0481L38.6549 63.075C37.3698 65.4846 33.7171 64.5714 33.7171 61.8406V34.2969C33.7171 34.1618 33.7267 34.0303 33.7452 33.9028C33.7895 33.5977 33.8846 33.3155 34.0196 33.0618C34.7308 31.7256 36.5517 31.1764 37.9142 32.1983Z" fill="#207DE9"></path><circle cx="29.7129" cy="27.1097" r="25.6672" fill="#DBF3F1"></circle><path fill-rule="evenodd" clip-rule="evenodd" d="M33.7171 52.4664V34.2969C33.7171 34.1618 33.7267 34.0303 33.7452 33.9028C33.7895 33.5977 33.8846 33.3155 34.0196 33.0618C34.7308 31.7256 36.5518 31.1764 37.9142 32.1983L50.7471 41.8229C46.832 47.4097 40.7478 51.365 33.7171 52.4664Z" fill="#6ADFD7"></path></g><defs><clipPath id="clip0_10237_315"><rect width="64" height="64" fill="white" transform="translate(0 0.955261)"></rect></clipPath></defs></svg> 